<svg width="50" height="50" viewBox="0 0 50 50" fill="none" xmlns="http://www.w3.org/2000/svg">
<path d="M11.6797 0.390625C8.11133 0.390625 5.07812 3.26562 5.07812 6.83594C5.07812 6.83594 5.07812 42.8691 5.07812 43.1641C5.07812 46.6543 7.89453 49.4512 11.3438 49.5898V49.6094H44.8867V47.7949C42.3027 47.7949 40.2129 45.7051 40.2129 43.1211C40.2129 40.5391 42.3027 38.4492 44.8867 38.4492V0.390625H11.6797ZM14.4531 26.4707C14.4531 22.2617 17.0195 18.6543 20.6699 17.1289C20.7871 17.0859 20.8809 17.0098 20.957 16.9082C21.1934 16.6035 21.4473 16.3066 21.7441 16.0117C23.4375 14.3184 25.9121 13.293 27.8672 13.209C28.8496 13.1738 29.7734 12.7676 30.4668 12.0742L31.0254 11.5059C31.373 11.1582 31.5176 10.6426 31.373 10.1758C31.3145 9.98242 31.2891 9.76953 31.3145 9.55859C31.3828 8.85547 31.9492 8.2793 32.6523 8.20312C33.5762 8.10156 34.3535 8.82227 34.3535 9.71875C34.3535 9.89648 34.4648 9.98242 34.5996 9.98242C35.498 9.98242 36.2168 10.7598 36.1152 11.6836C36.0391 12.3867 35.4629 12.9531 34.7617 13.0215C34.541 13.0391 34.3379 13.0137 34.1426 12.9531C33.6777 12.8008 33.1602 12.9531 32.8125 13.3008L32.2363 13.877C30.9922 15.1211 31.2285 16.7656 30.7891 18.332C30.3496 19.9238 29.4941 21.4062 28.3242 22.5742C27.1641 23.7422 25.8691 24.4453 24.5898 24.6152C24.2168 24.666 23.9551 25.0059 24.0059 25.377C24.0488 25.7246 24.3359 25.9707 24.6738 25.9707C24.6992 25.9707 24.7344 25.9609 24.7598 25.9609C26.334 25.7578 27.9004 24.9199 29.2812 23.5391C30.6289 22.1934 31.6699 20.3477 32.1699 18.4336C34.5742 20.2871 36.1328 23.2012 36.1328 26.4707V26.834C36.1328 28.5195 34.7695 29.8828 33.084 29.8828H17.502C15.8164 29.8828 14.4531 28.5195 14.4531 26.834V26.4707ZM38.3984 43.1016C38.3984 44.9355 39.1875 46.5918 40.4102 47.7754H11.6016C9.01758 47.7949 6.9082 45.6855 6.9082 43.1016C6.9082 40.6562 8.82031 38.6465 11.2266 38.4688L40.4688 38.4082C39.207 39.5918 38.3984 41.248 38.3984 43.1016Z" fill="#3CC579"/>
</svg>
