<svg width="35" height="35" viewBox="0 0 35 35" fill="none" xmlns="http://www.w3.org/2000/svg">
<path d="M20.8411 5.33322C20.1967 4.68886 19.1522 4.68886 18.5078 5.33322C17.8634 5.97758 17.8634 7.02231 18.5078 7.66667L20.8411 5.33322ZM24.0744 10.8999L22.9078 12.0667C23.5522 12.711 24.5967 12.711 25.2411 12.0667L24.0744 10.8999ZM34.0411 3.26667C34.6855 2.62231 34.6855 1.57758 34.0411 0.93322C33.3967 0.288862 32.3522 0.288862 31.7078 0.93322L34.0411 3.26667ZM6.68126 6.60335L6.26623 5.00639C6.24082 5.01301 6.21556 5.0202 6.19051 5.02801L6.68126 6.60335ZM3.72886 9.06955L4.7778 10.3432C4.83002 10.3002 4.87955 10.254 4.92608 10.2049L3.72886 9.06955ZM2.10086 12.2199L0.455148 12.1011C0.45275 12.1342 0.451365 12.1673 0.450969 12.2005L2.10086 12.2199ZM3.86086 18.8947L5.34291 18.1694C5.32542 18.1338 5.30665 18.0986 5.28663 18.0642L3.86086 18.8947ZM5.38766 21.4973L6.7629 20.5857C6.75665 20.5762 6.75032 20.567 6.74387 20.5575L5.38766 21.4973ZM15.7892 30.9199L16.62 29.4943C16.6006 29.4829 16.5808 29.4721 16.561 29.4616L15.7892 30.9199ZM21.9822 32.8999L21.8318 34.5433L21.8549 34.5451L21.9822 32.8999ZM25.2822 31.8549L26.3334 33.1268C26.344 33.118 26.3545 33.1092 26.3649 33.1001L25.2822 31.8549ZM28.1554 28.7243L26.7169 27.9161C26.705 27.9372 26.6938 27.9587 26.6828 27.9803L28.1554 28.7243ZM28.1664 26.3043L26.6808 27.022C26.6933 27.0482 26.7067 27.0741 26.7206 27.0994L28.1664 26.3043ZM23.4452 21.5765L22.7148 23.056C22.7247 23.0609 22.7344 23.0657 22.7443 23.0703L23.4452 21.5765ZM20.9152 21.6975L20.0471 20.2944C19.9873 20.3313 19.9301 20.372 19.8755 20.4163L20.9152 21.6975ZM19.5226 22.9691L20.6803 24.145C20.6884 24.1369 20.6963 24.1288 20.7045 24.1206L19.5226 22.9691ZM18.812 23.6687L19.964 24.8501L19.9697 24.8446L18.812 23.6687ZM17.8308 23.8073L16.9922 25.2283C17.0116 25.2398 17.0314 25.2508 17.0512 25.2615L17.8308 23.8073ZM11.0637 17.0181L9.59478 17.7697C9.60906 17.7976 9.62416 17.8251 9.64002 17.8522L11.0637 17.0181ZM11.1781 16.2745L10.0096 15.1096L10.003 15.1162L11.1781 16.2745ZM13.5078 13.5333L11.9585 12.9656L11.9534 12.9801L13.5078 13.5333ZM13.3604 11.4565L11.8829 12.1909C11.8906 12.2065 11.8986 12.222 11.9069 12.2374L13.3604 11.4565ZM11.1253 9.03655L9.96095 10.2057L9.96337 10.2081L11.1253 9.03655ZM8.17726 6.58575L8.63906 5.00168C8.6111 4.99354 8.58294 4.98613 8.5546 4.97948L8.17726 6.58575ZM18.5078 7.66667L22.9078 12.0667L25.2411 9.73322L20.8411 5.33322L18.5078 7.66667ZM25.2411 12.0667L34.0411 3.26667L31.7078 0.93322L22.9078 9.73322L25.2411 12.0667ZM6.19051 5.02801C4.99357 5.40089 4.10497 6.27515 2.53164 7.93415L4.92608 10.2049C6.66595 8.37034 6.95654 8.2458 7.17201 8.17868L6.19051 5.02801ZM2.67992 7.79588C1.38045 8.86607 0.576368 10.4221 0.455148 12.1011L3.74657 12.3388C3.80278 11.5605 4.17548 10.8393 4.7778 10.3432L2.67992 7.79588ZM0.450969 12.2005C0.419795 14.8419 1.10549 17.4425 2.43508 19.7252L5.28663 18.0642C4.25741 16.2972 3.72661 14.2842 3.75075 12.2394L0.450969 12.2005ZM2.37881 19.6201C2.85803 20.5993 3.41048 21.5409 4.03145 22.4372L6.74387 20.5575C6.21748 19.7978 5.74916 18.9997 5.34291 18.1694L2.37881 19.6201ZM4.01242 22.409C6.79031 26.5994 10.5739 30.0267 15.0175 32.3783L16.561 29.4616C12.6047 27.368 9.23614 24.3164 6.7629 20.5857L4.01242 22.409ZM14.9585 32.3455C17.0617 33.5712 19.4076 34.3214 21.8318 34.5433L22.1327 31.2568C20.1884 31.0788 18.3069 30.4773 16.62 29.4943L14.9585 32.3455ZM21.8549 34.5451C23.4752 34.6705 25.0807 34.1621 26.3334 33.1268L24.2311 30.5831C23.6377 31.0735 22.8772 31.3144 22.1096 31.2548L21.8549 34.5451ZM26.3649 33.1001C26.5301 32.9565 27.2303 32.2527 27.8725 31.598L25.5168 29.2871C25.1821 29.6283 24.8581 29.9557 24.6064 30.2071C24.3248 30.489 24.1946 30.6141 24.1996 30.6097L26.3649 33.1001ZM27.8725 31.598C28.9446 30.5026 29.2777 30.1623 29.6281 29.4684L26.6828 27.9803C26.6251 28.0943 26.6084 28.1255 26.5068 28.2454C26.3539 28.4254 26.0899 28.7017 25.5168 29.2871L27.8725 31.598ZM29.594 29.5326C30.2949 28.2848 30.302 26.7633 29.6123 25.5093L26.7206 27.0994C26.8607 27.354 26.8592 27.6628 26.7169 27.9161L29.594 29.5326ZM29.6521 25.5867C29.4774 25.225 29.3214 24.9626 28.9188 24.5186C28.5928 24.1591 28.041 23.6091 27.0653 22.6365L24.7358 24.9738C25.7486 25.9834 26.2201 26.4553 26.4746 26.736C26.593 26.8662 26.6234 26.9113 26.6275 26.9175C26.6286 26.919 26.63 26.921 26.6352 26.9307C26.6432 26.9452 26.6546 26.9679 26.6808 27.022L29.6521 25.5867ZM27.0653 22.6365C26.1156 21.6898 25.5656 21.1438 25.2063 20.8175C24.7866 20.4365 24.5202 20.2583 24.1462 20.0827L22.7443 23.0703C22.7641 23.0796 22.7606 23.0543 22.9876 23.2606C23.2752 23.5218 23.7561 23.9976 24.7358 24.9738L27.0653 22.6365ZM24.1756 20.097C22.8574 19.4463 21.2972 19.5209 20.0471 20.2944L21.7836 23.1007C22.0654 22.9262 22.4176 22.9093 22.7148 23.056L24.1756 20.097ZM19.8755 20.4163C19.3372 20.8532 18.8248 21.3211 18.341 21.8177L20.7045 24.1206C21.0987 23.716 21.5163 23.3348 21.955 22.9788L19.8755 20.4163ZM18.365 21.7932L17.6544 22.4928L19.9697 24.8446L20.6803 24.145L18.365 21.7932ZM17.6601 22.4873C17.9138 22.2401 18.2983 22.1857 18.6105 22.3531L17.0512 25.2615C18.0079 25.7744 19.1867 25.6078 19.964 24.8501L17.6601 22.4873ZM18.6695 22.3864C16.1148 20.8785 13.987 18.7436 12.4873 16.1841L9.64002 17.8522C11.4235 20.8963 13.954 23.4349 16.9922 25.2283L18.6695 22.3864ZM12.5326 16.2666C12.7304 16.6534 12.6582 17.1235 12.3531 17.4328L10.003 15.1162C9.30905 15.8202 9.14449 16.8897 9.59478 17.7697L12.5326 16.2666ZM12.3465 17.4394L13.0857 16.698L10.7488 14.3682L10.0096 15.1096L12.3465 17.4394ZM13.0857 16.698C14.1751 15.6044 14.7335 15.0106 15.0624 14.0866L11.9534 12.9801C11.9127 13.0945 11.9253 13.1871 10.7488 14.3682L13.0857 16.698ZM15.0571 14.1012C15.4691 12.977 15.3805 11.7304 14.814 10.6757L11.9069 12.2374C12.0275 12.4616 12.0461 12.7266 11.9585 12.9656L15.0571 14.1012ZM14.838 10.7222C14.6556 10.3552 14.4567 10.0854 14.0891 9.68691C13.7558 9.3258 13.2108 8.78119 12.2871 7.865L9.96337 10.2081C10.9096 11.1465 11.3921 11.6304 11.6639 11.9249C11.7958 12.0678 11.8455 12.1315 11.8631 12.1558C11.8682 12.1629 11.8677 12.1604 11.8829 12.1909L14.838 10.7222ZM12.2895 7.8674C11.2522 6.83437 10.6132 6.20257 10.1518 5.81889C9.90243 5.61159 9.65383 5.43233 9.37379 5.28669C9.08982 5.139 8.83567 5.05901 8.63906 5.00168L7.71546 8.16981C7.78181 8.18915 7.81369 8.19978 7.83237 8.20666C7.84675 8.21196 7.85034 8.21399 7.85122 8.21445C7.85239 8.21507 7.90133 8.23944 8.04196 8.35635C8.36041 8.62112 8.8709 9.12012 9.96095 10.2057L12.2895 7.8674ZM8.5546 4.97948C7.80095 4.80243 7.0155 4.81167 6.26623 5.00639L7.09629 8.2003C7.32667 8.14042 7.56819 8.13758 7.79991 8.19201L8.5546 4.97948Z" fill="#3CC579"/>
</svg>
