<svg width="38" height="35" viewBox="0 0 38 35" fill="none" xmlns="http://www.w3.org/2000/svg">
<path fill-rule="evenodd" clip-rule="evenodd" d="M37.5196 4.49086C38.0494 1.90791 35.5124 -0.238571 33.0529 0.711712L2.90428 12.3601C0.15764 13.4213 0.0352569 17.262 2.70874 18.4959L9.27428 21.5262L12.3976 32.4577C12.5598 33.0255 13.0104 33.4652 13.5821 33.6134C14.1537 33.7614 14.7611 33.596 15.1786 33.1784L19.9898 28.3672L26.7293 33.4219C28.6856 34.889 31.5033 33.8204 31.9946 31.4249L37.5196 4.49086ZM4.10561 15.4694L34.2543 3.82105L28.7293 30.7552L20.8334 24.8332C20.1699 24.3355 19.2414 24.4015 18.6549 24.988L16.5943 27.0487L17.2134 23.6435L29.3453 11.5118C29.9358 10.9213 29.9981 9.98515 29.4913 9.3216C28.9844 8.65803 28.0649 8.47191 27.3399 8.88618L10.5855 18.46L4.10561 15.4694ZM12.6284 21.1319L13.639 24.6692L14.027 22.535C14.0877 22.2015 14.2486 21.8944 14.4883 21.6547L18.1881 17.955L12.6284 21.1319Z" fill="#3CC579"/>
</svg>
